<svg xmlns="http://www.w3.org/2000/svg" xmlns:xlink="http://www.w3.org/1999/xlink" id="Layer_1" x="0" y="0" version="1.1" viewBox="0 0 32 32" xml:space="preserve" style="enable-background:new 0 0 32 32"><style type="text/css">.st0{fill:#008cdb}</style><path d="M32,9.56h-8.72v1.28h3.59V22h1.53V10.84H32V9.56z M21.81,10.84V9.56h-6.66V22h6.66v-1.28h-5.12v-4.34h4.56	v-1.31h-4.56v-4.22H21.81z M2.16,21.41c0,0.29-0.1,0.54-0.31,0.75s-0.47,0.31-0.78,0.31c-0.29,0-0.54-0.1-0.75-0.31	C0.1,21.95,0,21.7,0,21.41c0-0.31,0.1-0.57,0.31-0.78s0.46-0.31,0.75-0.31c0.31,0,0.57,0.1,0.78,0.31S2.16,21.09,2.16,21.41	L2.16,21.41z M13.41,9.56h-1.53v9.81l-7-9.81H3.34V22h1.53v-9.81L11.91,22h1.5V9.56z" class="st0"/></svg>