<svg xmlns="http://www.w3.org/2000/svg" xmlns:xlink="http://www.w3.org/1999/xlink" id="Layer_1" x="0" y="0" version="1.1" viewBox="0 0 32 32" xml:space="preserve" style="enable-background:new 0 0 32 32"><style type="text/css">.st0{fill:#e24329}.st1{fill:#fc6d26}.st2{fill:#fca326}</style><g><path d="M16.05,30.69l5.87-18.07H10.18L16.05,30.69L16.05,30.69z" class="st0"/><path d="M16.05,30.69l-5.87-18.07H1.95L16.05,30.69z" class="st1"/><path d="M1.95,12.62l-1.78,5.49c-0.16,0.5,0.02,1.05,0.44,1.36l15.45,11.22L1.95,12.62L1.95,12.62z" class="st2"/><path d="M1.95,12.62h8.23L6.64,1.73c-0.18-0.56-0.97-0.56-1.16,0L1.95,12.62L1.95,12.62z" class="st0"/><path d="M16.05,30.69l5.87-18.07h8.23L16.05,30.69L16.05,30.69z" class="st1"/><path d="M30.16,12.62l1.78,5.49c0.16,0.5-0.02,1.05-0.44,1.36L16.05,30.69L30.16,12.62L30.16,12.62z" class="st2"/><path d="M30.16,12.62h-8.23l3.54-10.89c0.18-0.56,0.97-0.56,1.16,0L30.16,12.62L30.16,12.62z" class="st0"/></g></svg>