<svg xmlns="http://www.w3.org/2000/svg" xmlns:svg="http://www.w3.org/2000/svg" xmlns:xlink="http://www.w3.org/1999/xlink" id="svg4660" width="30mm" height="30mm" version="1.1" viewBox="0 0 30 30"><metadata id="metadata4657"/><g id="layer1" transform="translate(0,-267)"><path style="fill:#326de6;stroke-width:.32433048" id="path4543" d="m 26.699808,274.38954 c -0.162166,-0.51892 -0.551362,-0.94055 -1.037858,-1.20002 l -9.892081,-4.73522 c -0.259464,-0.12974 -0.551361,-0.16217 -0.810826,-0.16217 -0.259465,0 -0.551362,0 -0.810826,0.0648 l -9.8920807,4.76767 c -0.4864961,0.22702 -0.8432597,0.64865 -0.9729919,1.20001 l -2.43247871,10.67048 c -0.0972992,0.55136 0.0324326,1.10272 0.35676361,1.55679 l 6.843374,8.46502 c 0.3891966,0.3892 0.9405588,0.64867 1.4919199,0.6811 H 20.440228 c 0.583795,0.0649 1.135158,-0.1946 1.491921,-0.6811 l 6.843374,-8.46502 c 0.32433,-0.45407 0.454063,-1.00543 0.389196,-1.55679 z" class="st1"/><g style="font-style:normal;font-variant:normal;font-weight:700;font-stretch:normal;font-size:19.44939232px;line-height:32.41543961px;font-family:Comfortaa;-inkscape-font-specification:'Comfortaa, Bold';font-variant-ligatures:normal;font-variant-caps:normal;font-variant-numeric:normal;font-feature-settings:normal;text-align:start;letter-spacing:0;word-spacing:0;writing-mode:lr-tb;text-anchor:start;fill:#fff;fill-opacity:1;stroke:#fff;stroke-width:.5291667;stroke-linecap:butt;stroke-linejoin:round;stroke-miterlimit:4;stroke-dasharray:none;stroke-opacity:1" id="text4637" aria-label="V" transform="scale(0.96037023,1.0412651)"><path style="font-style:normal;font-variant:normal;font-weight:700;font-stretch:normal;font-size:19.44939232px;font-family:Comfortaa;-inkscape-font-specification:'Comfortaa, Bold';font-variant-ligatures:normal;font-variant-caps:normal;font-variant-numeric:normal;font-feature-settings:normal;text-align:start;writing-mode:lr-tb;text-anchor:start;fill:#fff;stroke:#fff;stroke-width:.5291667;stroke-linejoin:round;stroke-miterlimit:4;stroke-dasharray:none;stroke-opacity:1" id="path960" d="m 21.514922,264.47772 q 0.427887,0 0.66128,0.23339 0.252842,0.23339 0.252842,0.60293 0,0.2334 -0.116697,0.50569 l -5.75702,13.20613 q -0.252842,0.64183 -0.914121,0.64183 -0.622381,0 -0.914122,-0.64183 L 9.0284125,265.99477 q -0.1555952,-0.40844 -0.1555952,-0.68073 0,-0.38899 0.2333928,-0.60293 0.2528421,-0.23339 0.6807287,-0.23339 0.6807292,0 0.9335712,0.60293 l 4.901246,11.74743 4.979045,-11.74743 q 0.136146,-0.35009 0.350089,-0.46679 0.213943,-0.13614 0.564032,-0.13614 z"/></g></g><g id="layer2" style="display:none"><image id="image938" width="29.98" height="29.98" x=".01" y=".01" preserveAspectRatio="none" xlink:href="kubevirt-pre.png" style="opacity:.34900004"/></g></svg>