<svg xmlns="http://www.w3.org/2000/svg" xmlns:xlink="http://www.w3.org/1999/xlink" id="Layer_1" x="0" y="0" version="1.1" viewBox="0 0 32 32" xml:space="preserve" style="enable-background:new 0 0 32 32"><style type="text/css">.st0{fill:url(#SVGID_1_)}.st1{fill:url(#SVGID_2_)}.st2{fill:url(#SVGID_3_)}.st3{fill:url(#SVGID_4_)}.st4,.st5{opacity:.1;enable-background:new}.st5{opacity:.3;fill:#fff}</style><g><linearGradient id="SVGID_1_" x1="-287.796" x2="-287.796" y1="411.378" y2="411.504" gradientTransform="matrix(253.3608 0 0 -253.3608 72932.2812 104259.0234)" gradientUnits="userSpaceOnUse"><stop offset="0" style="stop-color:#574c4a"/><stop offset="1" style="stop-color:#80716d"/></linearGradient><path d="M0,21.62V10.38C0,1.3,1.3,0,10.37,0h11.26C30.7,0,32,1.3,32,10.38v11.24C32,30.7,30.7,32,21.63,32H10.37 C1.3,32,0,30.7,0,21.62L0,21.62z" class="st0"/><g transform="translate(45.789223, 47.097648)"><linearGradient id="SVGID_2_" x1="-333.135" x2="-333.209" y1="363.564" y2="363.699" gradientTransform="matrix(159.2833 0 0 -152.8247 53038.5781 55540.5859)" gradientUnits="userSpaceOnUse"><stop offset="0" style="stop-color:#268d83"/><stop offset="1" style="stop-color:#2ea19e"/></linearGradient><path d="M-38.88-41.07c-1.57,9.97-0.75,19.3-0.75,19.3h4.92c-0.47-2.49-2.15-13.86-0.75-13.9 c0.75,0.12,4.17,9.65,4.17,9.65s0.75-0.09,1.51-0.09c0.76,0,1.51,0.09,1.51,0.09s3.42-9.53,4.17-9.65 c1.4,0.04-0.28,11.41-0.75,13.9h4.92c0,0,0.82-9.33-0.75-19.3h-4.55c-0.87,0.01-4.16,5.79-4.54,5.79c-0.38,0-3.68-5.78-4.54-5.79 H-38.88L-38.88-41.07z" class="st1"/><radialGradient id="SVGID_3_" cx="-323.822" cy="353.917" r=".063" gradientTransform="matrix(18.4262 0 0 -18.4263 5934.6948 6498.2632)" gradientUnits="userSpaceOnUse"><stop offset="0" style="stop-color:#db7c7c"/><stop offset="1" style="stop-color:#c83737"/></radialGradient><path d="M-30.76-22.93c0,0.64-0.52,1.16-1.16,1.16c-0.64,0-1.16-0.52-1.16-1.16c0-0.64,0.52-1.16,1.16-1.16 C-31.28-24.09-30.76-23.57-30.76-22.93L-30.76-22.93z" class="st2"/><radialGradient id="SVGID_4_" cx="-325.42" cy="353.917" r=".063" gradientTransform="matrix(18.4262 0 0 -18.4263 5968.4775 6498.2632)" gradientUnits="userSpaceOnUse"><stop offset="0" style="stop-color:#db7c7c"/><stop offset="1" style="stop-color:#c83737"/></radialGradient><path d="M-26.49-22.93c0,0.64-0.52,1.16-1.16,1.16c-0.64,0-1.16-0.52-1.16-1.16c0-0.64,0.52-1.16,1.16-1.16 C-27.01-24.09-26.49-23.57-26.49-22.93L-26.49-22.93z" class="st3"/><path d="M-20.93-40.74c0.71,4.8,0.88,9.41,0.86,12.85c-0.01,3.51-0.21,5.79-0.21,5.79h-4.14l-0.44,0.33h4.92 c0,0,0.82-9.33-0.75-19.3L-20.93-40.74z M-33.96-40.86c1.29,1.44,3.53,5.25,3.83,5.25C-30.94-36.66-32.95-40-33.96-40.86 L-33.96-40.86z M-35.8-35.99c-1.4,0.04,0.28,11.41,0.75,13.9h-4.29l-0.29,0.33h4.92c-0.47-2.48-2.13-13.74-0.77-13.9 C-35.61-35.85-35.72-35.98-35.8-35.99L-35.8-35.99z M-24.45-35.99c-0.75,0.12-4.17,9.65-4.17,9.65s-0.75-0.09-1.51-0.09 c-0.45,0-0.83,0.03-1.1,0.05l-0.08,0.38c0,0,0.75-0.09,1.51-0.09c0.76,0,1.51,0.09,1.51,0.09s3.39-9.46,4.16-9.65 C-24.2-35.87-24.31-35.99-24.45-35.99L-24.45-35.99z" class="st4"/><path d="M-38.88-41.07c-1.57,9.97-0.75,19.3-0.75,19.3l0.29-0.33c-0.15-2.2-0.54-10.16,0.79-18.64H-34 c0.1,0,0.23,0.08,0.38,0.21c-0.3-0.33-0.55-0.54-0.71-0.54H-38.88z M-25.25-41.07c-0.87,0.01-4.16,5.79-4.54,5.79 c0.15,0.2,0.28,0.33,0.33,0.33c0.38,0,3.68-5.78,4.54-5.79h4.02l0.2-0.33H-25.25z M-35.15-35.33c1.11,1.66,3.85,9.31,3.85,9.31 l0.08-0.37c-0.68-1.86-3.26-8.84-3.91-8.94C-35.14-35.33-35.15-35.33-35.15-35.33L-35.15-35.33z M-23.78-35.33 c0.74,1.89-0.66,11.32-1.08,13.56l0.45-0.35C-23.85-25.45-22.48-35.29-23.78-35.33L-23.78-35.33z" class="st5"/></g></g></svg>