<svg xmlns="http://www.w3.org/2000/svg" xmlns:xlink="http://www.w3.org/1999/xlink" id="Layer_1" x="0" y="0" version="1.1" viewBox="0 0 32 32" xml:space="preserve" style="enable-background:new 0 0 32 32"><style type="text/css">.st0{fill:url(#SVGID_1_)}.st1{fill:url(#SVGID_2_)}.st2{fill:url(#SVGID_3_)}</style><g><linearGradient id="SVGID_1_" x1="-648.306" x2="-658.424" y1="-806.551" y2="-806.62" gradientTransform="matrix(-0.9771 -0.323 0.2901 -0.8773 -387.4906 -900.6693)" gradientUnits="userSpaceOnUse"><stop offset=".231" style="stop-color:#999875"/><stop offset=".563" style="stop-color:#9b9977"/><stop offset=".683" style="stop-color:#a09f7e"/><stop offset=".768" style="stop-color:#a9a889"/><stop offset=".837" style="stop-color:#b7b69a"/><stop offset=".896" style="stop-color:#c9c7b0"/><stop offset=".948" style="stop-color:#deddcb"/><stop offset=".994" style="stop-color:#f8f6eb"/><stop offset="1" style="stop-color:#fbf9ef"/></linearGradient><path d="M17.67,32l-0.86-0.28c0,0,0.11-4.34-1.46-4.65c-1.03-1.2,0.16-51.13,3.91-0.17c0,0-1.28,0.65-1.53,1.74 C17.49,29.73,17.67,32,17.67,32z" class="st0"/><linearGradient id="SVGID_2_" x1="-646.748" x2="-661.304" y1="-788.842" y2="-814.055" gradientTransform="matrix(-0.9771 -0.323 0.2901 -0.8773 -387.4906 -900.6693)" gradientUnits="userSpaceOnUse"><stop offset="0" style="stop-color:#48a547"/><stop offset="1" style="stop-color:#3f9143"/></linearGradient><path d="M18.13,27.81c0,0,7.46-4.91,5.71-15.11c-1.68-7.41-5.66-9.85-6.08-10.78c-0.47-0.66-0.94-1.82-0.94-1.82 l0.32,20.65C17.13,20.74,16.48,27.04,18.13,27.81z" class="st1"/><linearGradient id="SVGID_3_" x1="-645.414" x2="-655.732" y1="-806.967" y2="-800.036" gradientTransform="matrix(-0.9771 -0.323 0.2901 -0.8773 -387.4906 -900.6693)" gradientUnits="userSpaceOnUse"><stop offset="0" style="stop-color:#41a247"/><stop offset=".352" style="stop-color:#4ba74b"/><stop offset=".956" style="stop-color:#67b554"/><stop offset="1" style="stop-color:#69b655"/></linearGradient><path d="M16.37,28.08c0,0-7-4.77-6.59-13.19c0.4-8.42,5.34-12.56,6.31-13.31c0.62-0.66,0.65-0.92,0.7-1.57 c0.44,0.94,0.36,13.99,0.41,15.52C17.37,21.46,16.86,26.96,16.37,28.08z" class="st2"/></g></svg>