<svg xmlns="http://www.w3.org/2000/svg" xmlns:xlink="http://www.w3.org/1999/xlink" id="Layer_1" x="0" y="0" version="1.1" viewBox="0 0 32 32" xml:space="preserve" style="enable-background:new 0 0 32 32"><style type="text/css">.st0{fill:#fff}.st1{fill:none}.st2{fill:url(#SVGID_1_);stroke:#000}</style><path d="M10.96,3.42c0.66,1.39,0.21,11.06-0.56,14.45c-0.77,3.4-1.55,7.72-1.73,11.36c-0.08,1.55,0.16,2.16,1.17,2.16	c1.79,0,4.05-3.77,6.9-3.68c2.85,0.08,3.75,4.32,5.09,4.29c1.33-0.03,2.41-0.49,2.42-4.61C24.29,15.08,13.98,5.1,10.96,3.42	L10.96,3.42L10.96,3.42L10.96,3.42z"/><path d="M19.91,13.25c0.63,1.06,2.23,0.24,2.3-0.95c0.07-1.19-0.11-2.7-0.88-2.75c-0.77-0.06-1.33-0.83-2.1-0.89	s-1.61,0.72-1.97-0.31c-0.36-1.03,0.97-1.46,1.97-1.63c-0.89-0.89-1.41-1.87-1.8-2.9c-0.39-1.02-0.68-1.96,0.41-2.36	s1,1.66,2.25,2.61c-0.37-1.39-0.5-1.97-0.48-2.78s-0.03-1.43,1.12-1.27s0.65,2.54,1.54,3.52c0.27-0.92,0.44-2.09,1.09-2.57	s2.15-0.49,1.2,1.48s0.28,3.04-0.01,4.6s-1.18,1.27-1.57,2.27c-0.38,1,0.23,3.28-0.5,4.3s-0.85,2.6-0.38,3.85	C20.66,16.13,19.91,13.25,19.91,13.25L19.91,13.25L19.91,13.25L19.91,13.25z"/><path d="M10.93,14.58c-0.58,3.99-2.61,4.47-2.71,6.12c-0.1,1.66,0.54,1.82,0.5,3.35c-0.04,1.53-1.4,2.15-1.57,2.99	c-0.16,0.83,0.7,1.1,1.2,1.1s1.01-2.21,1.21-3.61c0.2-1.4-0.67-2.23-0.67-3.19s1.26-2.72,1.03-1.18	C10.97,18.51,11.47,16.41,10.93,14.58L10.93,14.58L10.93,14.58L10.93,14.58z"/><path d="M11.71,16.1c-0.44,2.16-3.2,14.22-1.79,14.37c1.4,0.15,3.4-3.73,6.67-3.7c3.27,0.03,4.56,4.35,5.36,4.33	c0.8-0.03,1.32,0.28,1.41-4.59s-2.89-11.1-4.65-13.84C16.31,12.82,13.75,14.73,11.71,16.1L11.71,16.1L11.71,16.1L11.71,16.1z" class="st0"/><g><path d="M18.06,13.52c-0.15-1.43-1.5-2-2.8-1.82c-1.09,0.15-2.54,1.07-2.68,2.25c-0.15,1.33,0.9,2.55,2.23,2.61 c1.18,0.05,2.45-0.52,2.98-1.63C18,14.48,18.08,14.02,18.06,13.52" class="st1"/><path d="M18.68,13.47c-0.13-1.35-1.13-2.2-2.43-2.41c-1.25-0.2-2.61,0.39-3.49,1.27c-0.98,0.98-1.02,2.35-0.33,3.52 c0.68,1.15,2.19,1.53,3.42,1.24C17.54,16.71,18.79,15.23,18.68,13.47"/><radialGradient id="SVGID_1_" cx="13.931" cy="20.878" r="4.297" gradientTransform="matrix(1 0 0 -1 0 34)" gradientUnits="userSpaceOnUse"><stop offset="0" style="stop-color:#fff"/><stop offset=".06" style="stop-color:#fbc8b4"/><stop offset=".071" style="stop-color:#fbc3b0"/><stop offset=".183" style="stop-color:#f7978b"/><stop offset=".299" style="stop-color:#f4716b"/><stop offset=".42" style="stop-color:#f15251"/><stop offset=".545" style="stop-color:#ef3a3d"/><stop offset=".678" style="stop-color:#ee292f"/><stop offset=".822" style="stop-color:#ed1f27"/><stop offset="1" style="stop-color:#ed1c24"/></radialGradient><path d="M18.06,13.98c-0.12,1.23-1.1,2.21-2.27,2.5c-1.25,0.3-2.62-0.18-3.07-1.46c-0.23-0.65-0.19-1.33,0.21-1.9 c0.33-0.48,0.87-0.86,1.4-1.1c1.09-0.5,2.66-0.55,3.42,0.56C18.02,12.99,18.07,13.48,18.06,13.98" class="st2"/></g></svg>