<svg xmlns="http://www.w3.org/2000/svg" xmlns:xlink="http://www.w3.org/1999/xlink" id="Layer_1" x="0" y="0" version="1.1" viewBox="0 0 32 32" xml:space="preserve" style="enable-background:new 0 0 32 32"><style type="text/css">.st0{fill:url(#SVGID_1_)}.st1{fill:url(#SVGID_2_)}</style><g><linearGradient id="SVGID_1_" x1="0" x2="1" y1="32" y2="32" gradientTransform="matrix(15.8231 15.876 -15.876 15.8231 511.0319 -503.4808)" gradientUnits="userSpaceOnUse"><stop offset="0" style="stop-color:#387eb8"/><stop offset="1" style="stop-color:#366994"/></linearGradient><path d="M15.88,0C7.76,0,8.27,3.52,8.27,3.52l0.01,3.65h7.75v1.1H5.2c0,0-5.2-0.59-5.2,7.61c0,8.2,4.54,7.91,4.54,7.91 h2.71v-3.8c0,0-0.15-4.54,4.46-4.54s7.69,0,7.69,0s4.32,0.07,4.32-4.17s0-7.02,0-7.02S24.37,0,15.88,0z M11.61,2.45 c0.77,0,1.39,0.62,1.39,1.39s-0.62,1.39-1.39,1.39c-0.77,0-1.39-0.62-1.39-1.39S10.84,2.45,11.61,2.45z" class="st0"/><linearGradient id="SVGID_2_" x1="0" x2="1" y1="32" y2="32" gradientTransform="matrix(16.994 16.2811 -16.2811 16.994 533.727 -530.8452)" gradientUnits="userSpaceOnUse"><stop offset="0" style="stop-color:#ffe052"/><stop offset="1" style="stop-color:#ffc331"/></linearGradient><path d="M16.12,31.83c8.12,0,7.62-3.52,7.62-3.52l-0.01-3.65h-7.75v-1.1H26.8c0,0,5.2,0.59,5.2-7.61 c0-8.2-4.54-7.91-4.54-7.91h-2.71v3.8c0,0,0.15,4.54-4.46,4.54s-7.69,0-7.69,0s-4.32-0.07-4.32,4.17s0,7.02,0,7.02 S7.63,31.83,16.12,31.83z M20.39,29.38c-0.77,0-1.39-0.62-1.39-1.39c0-0.77,0.62-1.39,1.39-1.39s1.39,0.62,1.39,1.39 C21.78,28.76,21.16,29.38,20.39,29.38z" class="st1"/></g></svg>