<svg xmlns="http://www.w3.org/2000/svg" xmlns:xlink="http://www.w3.org/1999/xlink" id="Layer_1" x="0" y="0" version="1.1" viewBox="0 0 33 32" xml:space="preserve" style="enable-background:new 0 0 33 32"><style type="text/css">.st0{fill:#a41e11}.st1{fill:#d82c20}.st2{fill:#fff}.st3{fill:#7a0c00}.st4{fill:#ad2115}</style><path d="M31.71,23.72c-1.76,0.92-10.88,4.67-12.83,5.68c-1.94,1.01-3.02,1-4.56,0.27c-1.53-0.73-11.24-4.65-12.99-5.49	C0.46,23.76,0,23.41,0,23.08v-3.34c0,0,12.64-2.75,14.68-3.48c2.04-0.73,2.75-0.76,4.48-0.12c1.74,0.64,12.12,2.51,13.84,3.14	c0,0,0,2.98,0,3.29C33,22.89,32.6,23.25,31.71,23.72L31.71,23.72z" class="st0"/><path d="M31.71,20.39c-1.76,0.92-10.88,4.67-12.83,5.68c-1.94,1.01-3.02,1-4.56,0.27c-1.53-0.73-11.24-4.66-12.99-5.49	c-1.75-0.84-1.79-1.41-0.07-2.08c1.72-0.67,11.37-4.46,13.41-5.19c2.04-0.73,2.75-0.76,4.48-0.12c1.74,0.64,10.8,4.25,12.52,4.87	C33.4,18.95,33.47,19.47,31.71,20.39L31.71,20.39z" class="st1"/><path d="M31.71,18.28c-1.76,0.92-10.88,4.67-12.83,5.68c-1.94,1.01-3.02,1-4.56,0.27c-1.53-0.73-11.24-4.65-12.99-5.49	C0.46,18.32,0,17.97,0,17.64V14.3c0,0,12.64-2.75,14.68-3.48c2.04-0.73,2.75-0.76,4.48-0.12c1.74,0.64,12.12,2.51,13.84,3.14	c0,0,0,2.98,0,3.29C33,17.45,32.6,17.82,31.71,18.28z" class="st0"/><path d="M31.71,14.95c-1.76,0.92-10.88,4.67-12.83,5.68c-1.94,1.01-3.02,1-4.56,0.27c-1.53-0.73-11.24-4.66-12.99-5.49	c-1.75-0.84-1.79-1.41-0.07-2.08c1.72-0.67,11.37-4.46,13.41-5.19c2.04-0.73,2.75-0.76,4.48-0.12c1.74,0.64,10.8,4.25,12.52,4.87	C33.4,13.51,33.47,14.03,31.71,14.95L31.71,14.95z" class="st1"/><path d="M31.71,12.64c-1.76,0.92-10.88,4.67-12.83,5.68c-1.94,1.01-3.02,1-4.56,0.27c-1.53-0.73-11.24-4.66-12.99-5.49	C0.46,12.68,0,12.33,0,12V8.66c0,0,12.64-2.75,14.68-3.48c2.04-0.73,2.75-0.76,4.48-0.12C20.9,5.69,31.28,7.57,33,8.19	c0,0,0,2.98,0,3.29C33,11.81,32.6,12.17,31.71,12.64L31.71,12.64z" class="st0"/><path d="M31.71,9.3c-1.76,0.92-10.88,4.67-12.83,5.68c-1.94,1.01-3.02,1-4.56,0.27S3.08,10.6,1.33,9.76	c-1.75-0.84-1.79-1.41-0.07-2.08c1.72-0.67,11.37-4.46,13.41-5.19c2.04-0.73,2.75-0.76,4.48-0.12C20.9,3,29.97,6.61,31.69,7.24	C33.4,7.87,33.47,8.39,31.71,9.3L31.71,9.3z" class="st1"/><polygon points="20.82 6.09 17.96 6.39 17.32 7.93 16.29 6.21 12.99 5.91 15.45 5.03 14.71 3.66 17.02 4.56 19.19 3.85 18.61 5.26" class="st2"/><polygon points="17.15 13.56 11.82 11.35 19.46 10.18" class="st2"/><ellipse cx="9.76" cy="8.53" class="st2" rx="4.09" ry="1.58"/><polygon points="24.2 6.51 28.73 8.3 24.21 10.09" class="st3"/><polygon points="19.2 8.49 24.2 6.51 24.21 10.09 23.72 10.28" class="st4"/></svg>