<svg xmlns="http://www.w3.org/2000/svg" xmlns:xlink="http://www.w3.org/1999/xlink" id="Layer_1" x="0" y="0" version="1.1" viewBox="0 0 32 32" xml:space="preserve" style="enable-background:new 0 0 32 32"><style type="text/css">.st0{fill:url(#SVGID_1_)}.st1{fill:url(#SVGID_2_)}.st2{fill:url(#SVGID_3_)}.st3{fill:url(#SVGID_4_)}.st4{fill:url(#SVGID_5_)}.st5{fill:url(#SVGID_6_)}.st6{fill:url(#SVGID_7_)}.st7{fill:url(#SVGID_8_)}.st8{fill:#fff}.st9{fill:url(#SVGID_9_)}.st10{fill:url(#SVGID_10_)}.st11{fill:url(#SVGID_11_)}.st12{fill:url(#SVGID_12_)}.st13{fill:#9e1209}.st14{fill:url(#SVGID_13_)}.st15{fill:url(#SVGID_14_)}.st16{fill:url(#SVGID_15_)}.st17{fill:url(#SVGID_16_)}</style><g><linearGradient id="SVGID_1_" x1="0" x2="1" y1="32" y2="32" gradientTransform="matrix(-6.7127 -11.8516 11.8516 -6.7127 -351.2506 249.4229)" gradientUnits="userSpaceOnUse"><stop offset="0" style="stop-color:#fb7655"/><stop offset="0" style="stop-color:#fb7655"/><stop offset=".41" style="stop-color:#e42b1e"/><stop offset=".99" style="stop-color:#900"/><stop offset="1" style="stop-color:#900"/></linearGradient><polygon points="24.7 20.94 6.53 31.73 30.05 30.14 31.86 6.42" class="st0"/><linearGradient id="SVGID_2_" x1="0" x2="1" y1="32" y2="32" gradientTransform="matrix(-8.6511 -5.8054 5.8054 -8.6511 -154.4296 301.4974)" gradientUnits="userSpaceOnUse"><stop offset="0" style="stop-color:#871101"/><stop offset="0" style="stop-color:#871101"/><stop offset=".99" style="stop-color:#911209"/><stop offset="1" style="stop-color:#911209"/></linearGradient><polygon points="30.09 30.12 28.07 16.16 22.56 23.44" class="st1"/><linearGradient id="SVGID_3_" x1="0" x2="1" y1="32" y2="32" gradientTransform="matrix(-8.6509 -5.8053 5.8053 -8.6509 -161.3458 311.8036)" gradientUnits="userSpaceOnUse"><stop offset="0" style="stop-color:#871101"/><stop offset="0" style="stop-color:#871101"/><stop offset=".99" style="stop-color:#911209"/><stop offset="1" style="stop-color:#911209"/></linearGradient><polygon points="30.12 30.12 15.31 28.96 6.61 31.7" class="st2"/><linearGradient id="SVGID_4_" x1="0" x2="1" y1="32" y2="32" gradientTransform="matrix(1.3411 8.7159 -8.7159 1.3411 285.1677 -22.4565)" gradientUnits="userSpaceOnUse"><stop offset="0" style="stop-color:#fff"/><stop offset="0" style="stop-color:#fff"/><stop offset=".23" style="stop-color:#e57252"/><stop offset=".46" style="stop-color:#de3b20"/><stop offset=".99" style="stop-color:#a60003"/><stop offset="1" style="stop-color:#a60003"/></linearGradient><polygon points="6.63 31.7 10.33 19.58 2.19 21.32" class="st3"/><linearGradient id="SVGID_5_" x1="0" x2="1" y1="32" y2="32" gradientTransform="matrix(0.4941 8.8951 -8.8951 0.4941 300.1274 -3.4918)" gradientUnits="userSpaceOnUse"><stop offset="0" style="stop-color:#fff"/><stop offset="0" style="stop-color:#fff"/><stop offset=".23" style="stop-color:#e4714e"/><stop offset=".56" style="stop-color:#be1a0d"/><stop offset=".99" style="stop-color:#a80d00"/><stop offset="1" style="stop-color:#a80d00"/></linearGradient><polygon points="22.56 23.48 19.16 10.14 9.41 19.27" class="st4"/><linearGradient id="SVGID_6_" x1="0" x2="1" y1="32" y2="32" gradientTransform="matrix(1.4793 6.3751 -6.3751 1.4793 227.6708 -43.2392)" gradientUnits="userSpaceOnUse"><stop offset="0" style="stop-color:#fff"/><stop offset="0" style="stop-color:#fff"/><stop offset=".18" style="stop-color:#e46342"/><stop offset=".4" style="stop-color:#c82410"/><stop offset=".99" style="stop-color:#a80d00"/><stop offset="1" style="stop-color:#a80d00"/></linearGradient><polygon points="31.09 10.33 21.88 2.81 19.32 11.1" class="st5"/><linearGradient id="SVGID_7_" x1="0" x2="1" y1="32" y2="32" gradientTransform="matrix(6.3746 -3.1873 3.1873 6.3746 -82.8428 -202.1345)" gradientUnits="userSpaceOnUse"><stop offset="0" style="stop-color:#fff"/><stop offset="0" style="stop-color:#fff"/><stop offset=".54" style="stop-color:#c81f11"/><stop offset=".99" style="stop-color:#bf0905"/><stop offset="1" style="stop-color:#bf0905"/></linearGradient><polygon points="26.78 .12 21.37 3.12 17.95 .08" class="st6"/><linearGradient id="SVGID_8_" x1="0" x2="1" y1="32" y2="32" gradientTransform="matrix(0.5247 5.2529 -5.2529 0.5247 168.7647 1.4476)" gradientUnits="userSpaceOnUse"><stop offset="0" style="stop-color:#fff"/><stop offset="0" style="stop-color:#fff"/><stop offset=".31" style="stop-color:#de4024"/><stop offset=".99" style="stop-color:#bf190b"/><stop offset="1" style="stop-color:#bf190b"/></linearGradient><polygon points=".04 25.39 2.31 21.25 .48 16.32" class="st7"/><path d="M0.36,16.16L2.2,21.4l8.03-1.8l9.16-8.52l2.59-8.21L17.9,0l-6.92,2.59C8.8,4.62,4.57,8.63,4.42,8.71 C4.27,8.78,1.62,13.78,0.36,16.16z" class="st8"/><linearGradient id="SVGID_9_" x1="0" x2="1" y1="32" y2="32" gradientTransform="matrix(24.6635 -25.361 25.361 24.6635 -814.4888 -764.3236)" gradientUnits="userSpaceOnUse"><stop offset="0" style="stop-color:#bd0012"/><stop offset="0" style="stop-color:#bd0012"/><stop offset=".07" style="stop-color:#fff"/><stop offset=".17" style="stop-color:#fff"/><stop offset=".27" style="stop-color:#c82f1c"/><stop offset=".33" style="stop-color:#820c01"/><stop offset=".46" style="stop-color:#a31601"/><stop offset=".72" style="stop-color:#b31301"/><stop offset=".99" style="stop-color:#e82609"/><stop offset="1" style="stop-color:#e82609"/></linearGradient><path d="M6.84,6.75C11.57,2.07,17.66-0.7,20,1.66c2.34,2.36-0.14,8.09-4.87,12.78S4.39,22.04,2.05,19.68 C-0.29,17.32,2.11,11.44,6.84,6.75z" class="st9"/><linearGradient id="SVGID_10_" x1="0" x2="1" y1="32" y2="32" gradientTransform="matrix(-7.4289 -1.8335 1.8335 -7.4289 -42.717 265.1924)" gradientUnits="userSpaceOnUse"><stop offset="0" style="stop-color:#8c0c01"/><stop offset="0" style="stop-color:#8c0c01"/><stop offset=".54" style="stop-color:#990c00"/><stop offset=".99" style="stop-color:#a80d0e"/><stop offset="1" style="stop-color:#a80d0e"/></linearGradient><path d="M6.63,31.7l3.67-12.16l12.19,3.92C18.08,27.59,13.18,31.08,6.63,31.7z" class="st10"/><linearGradient id="SVGID_11_" x1="0" x2="1" y1="32" y2="32" gradientTransform="matrix(-6.5996 -5.915 5.915 -6.5996 -160.5651 229.7383)" gradientUnits="userSpaceOnUse"><stop offset="0" style="stop-color:#7e110b"/><stop offset="0" style="stop-color:#7e110b"/><stop offset=".99" style="stop-color:#9e0c00"/><stop offset="1" style="stop-color:#9e0c00"/></linearGradient><path d="M19.41,11.06l3.13,12.4c3.68-3.87,6.99-8.03,8.61-13.18L19.41,11.06z" class="st11"/><linearGradient id="SVGID_12_" x1="0" x2="1" y1="32" y2="32" gradientTransform="matrix(-3.2874 -3.5145 3.5145 -3.2874 -81.3226 112.8948)" gradientUnits="userSpaceOnUse"><stop offset="0" style="stop-color:#79130d"/><stop offset="0" style="stop-color:#79130d"/><stop offset=".99" style="stop-color:#9e120b"/><stop offset="1" style="stop-color:#9e120b"/></linearGradient><path d="M31.11,10.34c1.25-3.78,1.54-9.2-4.37-10.21L21.9,2.81L31.11,10.34z" class="st12"/><path d="M0.04,25.33c0.17,6.24,4.68,6.33,6.59,6.39L2.21,21.38L0.04,25.33z" class="st13"/><radialGradient id="SVGID_13_" cx="0" cy="32" r="1" gradientTransform="matrix(8.0874 0 0 8.0874 23.1433 -246.0486)" gradientUnits="userSpaceOnUse"><stop offset="0" style="stop-color:#a80d00"/><stop offset="0" style="stop-color:#a80d00"/><stop offset=".99" style="stop-color:#7e0e08"/><stop offset="1" style="stop-color:#7e0e08"/></radialGradient><path d="M19.42,11.08c2.83,1.74,8.53,5.23,8.65,5.3c0.18,0.1,2.46-3.84,2.98-6.07L19.42,11.08z" class="st14"/><radialGradient id="SVGID_14_" cx="0" cy="32" r="1" gradientTransform="matrix(10.7512 0 0 10.7512 11.9432 -320.6302)" gradientUnits="userSpaceOnUse"><stop offset="0" style="stop-color:#a30c00"/><stop offset="0" style="stop-color:#a30c00"/><stop offset=".99" style="stop-color:#800e08"/><stop offset="1" style="stop-color:#800e08"/></radialGradient><path d="M10.3,19.54l4.91,9.47c2.9-1.57,5.17-3.49,7.26-5.55L10.3,19.54z" class="st15"/><linearGradient id="SVGID_15_" x1="0" x2="1" y1="32" y2="32" gradientTransform="matrix(-2.679 -9.089 9.089 -2.679 -286.5209 117.4204)" gradientUnits="userSpaceOnUse"><stop offset="0" style="stop-color:#8b2114"/><stop offset="0" style="stop-color:#8b2114"/><stop offset=".43" style="stop-color:#9e100a"/><stop offset=".99" style="stop-color:#b3100c"/><stop offset="1" style="stop-color:#b3100c"/></linearGradient><path d="M2.19,21.39l-0.7,8.28c1.31,1.79,3.12,1.95,5.01,1.81C5.13,28.07,2.4,21.25,2.19,21.39z" class="st16"/><linearGradient id="SVGID_16_" x1="0" x2="1" y1="32" y2="32" gradientTransform="matrix(6.0061 2.6512 -2.6512 6.0061 109.7174 -190.6222)" gradientUnits="userSpaceOnUse"><stop offset="0" style="stop-color:#b31000"/><stop offset="0" style="stop-color:#b31000"/><stop offset=".44" style="stop-color:#910f08"/><stop offset=".99" style="stop-color:#791c12"/><stop offset="1" style="stop-color:#791c12"/></linearGradient><path d="M21.87,2.83l9.75,1.37c-0.52-2.21-2.12-3.63-4.84-4.07L21.87,2.83z" class="st17"/></g></svg>