<svg xmlns="http://www.w3.org/2000/svg" xmlns:xlink="http://www.w3.org/1999/xlink" id="Layer_1" x="0" y="0" version="1.1" viewBox="0 0 21 32" xml:space="preserve" style="enable-background:new 0 0 21 32"><style type="text/css">.st0{fill:url(#SVGID_1_)}.st1{fill:url(#SVGID_2_)}.st2{fill:url(#SVGID_3_)}.st3{fill:url(#SVGID_4_)}.st4{fill:url(#SVGID_5_)}</style><g><linearGradient id="SVGID_1_" x1="-294.808" x2="-294.795" y1="410.36" y2="410.36" gradientTransform="matrix(1538 0 0 576.75 453415 -236654.25)" gradientUnits="userSpaceOnUse"><stop offset="0" style="stop-color:#4f4f4f"/><stop offset="1" style="stop-color:#000"/></linearGradient><path d="M0.65,19.69v2.46c0,0.41,8.95,1.11,14.78,2.46c2.82-0.65,4.91-1.46,4.91-2.46v-2.46c0-1-2.09-1.81-4.91-2.46 C9.61,18.58,0.65,19.28,0.65,19.69" class="st0"/><linearGradient id="SVGID_2_" x1="-294.808" x2="-294.795" y1="411.676" y2="411.676" gradientTransform="matrix(1538 0 0 576.75 453415 -237423.25)" gradientUnits="userSpaceOnUse"><stop offset="0" style="stop-color:#4f4f4f"/><stop offset="1" style="stop-color:#000"/></linearGradient><path d="M0.65,9.85v2.46c0,0.41,8.95,1.11,14.78,2.46c2.82-0.65,4.91-1.46,4.91-2.46V9.85c0-1-2.09-1.81-4.91-2.46 C9.61,8.74,0.65,9.43,0.65,9.85" class="st1"/><linearGradient id="SVGID_3_" x1="-294.808" x2="-294.795" y1="411.611" y2="411.611" gradientTransform="matrix(1538 0 0 961.25 453415 -395645)" gradientUnits="userSpaceOnUse"><stop offset="0" style="stop-color:#c40000"/><stop offset="1" style="stop-color:red"/></linearGradient><path d="M0.65,14.77v7.38c0-0.62,19.69-1.85,19.69-4.92V9.85C20.35,12.92,0.65,14.15,0.65,14.77" class="st2"/><linearGradient id="SVGID_4_" x1="-294.808" x2="-294.795" y1="412.401" y2="412.401" gradientTransform="matrix(1538 0 0 961.25 453415 -396414)" gradientUnits="userSpaceOnUse"><stop offset="0" style="stop-color:#c40000"/><stop offset="1" style="stop-color:red"/></linearGradient><path d="M0.65,4.92v7.38c0-0.62,19.69-1.85,19.69-4.92V0C20.35,3.08,0.65,4.31,0.65,4.92" class="st3"/><linearGradient id="SVGID_5_" x1="-294.808" x2="-294.795" y1="410.821" y2="410.821" gradientTransform="matrix(1538 0 0 961.25 453415 -394876)" gradientUnits="userSpaceOnUse"><stop offset="0" style="stop-color:#c40000"/><stop offset="1" style="stop-color:red"/></linearGradient><path d="M0.65,24.62V32c0-0.62,19.69-1.85,19.69-4.92v-7.38C20.35,22.77,0.65,24,0.65,24.62" class="st4"/></g></svg>