<svg xmlns="http://www.w3.org/2000/svg" xmlns:xlink="http://www.w3.org/1999/xlink" id="Layer_1" x="0" y="0" version="1.1" viewBox="0 0 32 32" xml:space="preserve" style="enable-background:new 0 0 32 32"><style type="text/css">.st0{fill:#75bc43}</style><g><path d="M15.05,13.36c0,0,0-4.24,4.24-4.24H32c0,0,0,4.24-4.24,4.24H15.05" class="st0"/><path d="M15.05,18.77c0,0,0-4.24,4.24-4.24h6.36c0,0,0,4.24-4.24,4.24H15.05" class="st0"/><path d="M15.05,24.19c0,0,0-4.24,4.24-4.24h2.12c0,0,0,4.24-4.24,4.24H15.05" class="st0"/><polyline points="13.63 20.88 13.63 24.26 0 24.26 8.78 12.29 1.24 12.29 1.24 8.91 15.46 8.91 6.72 20.88 13.63 20.88" class="st0"/></g></svg>