<svg xmlns="http://www.w3.org/2000/svg" xmlns:svg="http://www.w3.org/2000/svg" id="Layer_1" width="170.204" height="16" x="0" y="0" version="1.1" viewBox="0 0 170.204 16" xml:space="preserve"><metadata id="metadata19"/><style id="style2" type="text/css">.st0{fill:#f22b29}.st1{fill:#fff}</style><g id="g6" transform="translate(0.1)"><path id="path4" d="m 5.4,4.9 c 1.5,0 2.8,0.6 3.9,1.6 1.1,1 1.6,2.4 1.6,3.9 0,1.5 -0.6,2.8 -1.6,4 C 8.2,15.4 6.9,16 5.4,16 3.9,16 2.7,15.4 1.5,14.4 0.5,13.2 -0.1,11.8 -0.1,10.3 -0.1,8.8 0.5,7.5 1.5,6.4 2.5,5.3 4,4.9 5.4,4.9 Z m -3.5,5.5 c 0,1 0.3,1.8 1,2.6 0.7,0.7 1.5,1.1 2.5,1.1 0.9,0 1.8,-0.3 2.5,-1.1 0.7,-0.7 1,-1.6 1,-2.6 0,-1 -0.3,-1.9 -1,-2.6 C 7.3,7 6.5,6.7 5.4,6.7 4.5,6.7 3.7,7 3,7.8 2.3,8.5 1.9,9.4 1.9,10.4 Z" class="st0" style="fill:#f22b29"/></g><polygon id="polygon8" points="14.2 0 12.4 0 12.4 15.7 14.2 15.7 14.2 11.3 14.2 11.3 14.2 8.9" class="st1" transform="translate(0.1)" style="fill:#fff"/><path id="path10" d="m 21.3,15 c 0,-0.8 -0.2,-1.6 -0.6,-2.4 C 20.2,11.8 19.9,11.4 19.6,11 19.3,10.7 19,10.5 18.8,10.4 l -0.6,-0.3 c 1.7,-0.9 2.7,-2.3 3.1,-4 L 21.5,5.2 H 19.3 L 19.2,5.9 C 19,6.8 18.5,7.7 17.6,8.3 16.9,8.9 16.1,9.1 15.3,9.2 V 11 c 0.9,0.1 1.7,0.5 2.4,0.9 0.8,0.7 1.4,1.6 1.5,2.8 l 0.1,0.8 h 1.9 V 15 Z" class="st1" style="fill:#fff"/><path id="path12" d="m 31.5,0 v 7.2 3 c 0,1.1 -0.3,2 -1,2.8 -0.7,0.8 -1.6,1.1 -2.6,1.1 -1,0 -1.8,-0.3 -2.5,-1 -0.7,-0.7 -1,-1.6 -1,-2.5 0,-1 0.3,-1.9 1.1,-2.6 0.7,-0.7 1.7,-1.1 2.7,-1.1 0.1,0 0.2,0 0.3,0 0.1,0 0.3,0 0.6,0.1 0.3,0.1 0.7,0.2 1.1,0.5 V 5.4 C 29.7,5.2 29.3,5.1 29,5.1 28.8,5 28.5,5 28,5 c -1.7,0 -3,0.5 -4.1,1.5 -1,1 -1.6,2.3 -1.6,4 0,1.7 0.6,3 1.6,4 1,1 2.4,1.5 4,1.5 1.5,0 2.6,-0.3 3.5,-1.1 V 16 h 1.9 V 10.2 7.2 0 Z" class="st1" style="fill:#fff"/><text style="font-style:normal;font-weight:400;font-size:20px;line-height:1.25;font-family:sans-serif;letter-spacing:0;word-spacing:0;fill:#f9f9f9;fill-opacity:1;stroke:none" id="text3726" x="39.892" y="15.399" xml:space="preserve"><tspan id="tspan3724" x="39.892" y="15.399" style="font-size:15px">Virtualization</tspan></text></svg>