<svg xmlns="http://www.w3.org/2000/svg" xmlns:xlink="http://www.w3.org/1999/xlink" width="172" height="115" version="1.1" viewBox="0 0 172 115"><title>restricted-sign</title><desc>Created with Sketch.</desc><defs><path id="path-1" d="M89,109 L89,0 L83,0 L83,109 L78.0013869,109 C76.3430813,109 75,110.343146 75,112 L75,115 L97,115 L97,112 C97,110.346517 95.6562333,109 93.9986131,109 L89,109 Z"/><mask id="mask-2" width="22" height="115" x="0" y="0" fill="#fff" maskContentUnits="userSpaceOnUse" maskUnits="objectBoundingBox"><use xlink:href="#path-1"/></mask><rect id="path-3" width="66" height="52" x="53" y="12" rx="3"/><mask id="mask-4" width="66" height="52" x="0" y="0" fill="#fff" maskContentUnits="userSpaceOnUse" maskUnits="objectBoundingBox"><use xlink:href="#path-3"/></mask></defs><g id="Page-1" fill="none" fill-rule="evenodd" stroke="none" stroke-width="1"><g id="restricted-sign"><polygon id="Line" fill="#DDD" fill-rule="nonzero" points="-1 115 172 115 172 114 -1 114"/><use id="Combined-Shape" stroke="#999" stroke-linecap="square" stroke-width="2" mask="url(#mask-2)" xlink:href="#path-1"/><use id="Rectangle-3" fill="#FFF" stroke="#999" stroke-linecap="square" stroke-width="2" mask="url(#mask-4)" xlink:href="#path-3"/><path id="ïž" fill="#D64456" d="M94.9643119,37.2354782 C94.9643119,35.4106993 94.428597,33.719849 93.5078369,32.2968563 L80.885054,44.9028981 C82.3247879,45.8403992 84.0323792,46.3928552 85.8571582,46.3928552 C90.8794856,46.3928552 94.9643119,42.2912878 94.9643119,37.2354782 Z M78.2399616,42.2410646 L90.8794856,29.6182817 C89.4397517,28.6472984 87.7154193,28.0948423 85.8571582,28.0948423 C80.8348308,28.0948423 76.7500045,32.1964097 76.7500045,37.2354782 C76.7500045,39.0937394 77.3024605,40.8013307 78.2399616,42.2410646 Z M98.7143164,37.2354782 C98.7143164,44.3671832 92.9553809,50.1428597 85.8571582,50.1428597 C78.7589354,50.1428597 73,44.3671832 73,37.2354782 C73,30.1205144 78.7589354,24.3448379 85.8571582,24.3448379 C92.9553809,24.3448379 98.7143164,30.1205144 98.7143164,37.2354782 Z"/></g></g></svg>